<svg class="zzz" xmlns="http://www.w3.org/2000/svg" xmlns:xlink="http://www.w3.org/1999/xlink" version="1.1"
     viewBox="0 0 400 300" x="" y="0" style="background-color: transparent" preserveAspectRatio="xMinYMin meet"
     preserveaspectratio="xMinYMin meet">
    <rect width="100%" height="100%" id="svg_bg" fill="transparent"></rect>
    <g id="icon" type="image" transform="translate(149.99897003173828,63.81749725341797)">
        <g>
            <rect fill="rgba(0,0,0,0)" width="100" class="rect_bg" height="100"></rect>
            <svg xmlns="http://www.w3.org/2000/svg" viewBox="0 0 32.74 32.74" width="100" height="100"
                 preserveaspectratio="xMinYMin meet">
                <g>
                    <g fill="rgba(100, 200, 100,0.8)" fill-rule="evenodd">
                        <path d="M16.37 0A16.37 16.37 0 1 1 4.79 4.8 16.32 16.32 0 0 1 16.37 0zm9.8 6.57a13.86 13.86 0 1 0 4.06 9.8 13.81 13.81 0 0 0-4.06-9.8z"></path>
                        <path d="M23.28 4.4c-1.08-.62-2.84.05-4.81 1.65a28.86 28.86 0 0 0-6.37 7.86 28.84 28.84 0 0 0-3.62 9.44c-.39 2.5-.1 4.37 1 5s2.84-.05 4.81-1.65a28.86 28.86 0 0 0 6.37-7.86 28.86 28.86 0 0 0 3.62-9.44c.39-2.5.1-4.37-1-5zm-5.6.67c2.38-1.93 4.65-2.66 6.23-1.75S26 6.56 25.5 9.59a30.12 30.12 0 0 1-3.76 9.86 30.12 30.12 0 0 1-6.67 8.21c-2.38 1.93-4.65 2.67-6.23 1.75s-2.07-3.24-1.59-6.27A30.11 30.11 0 0 1 11 13.3a30.13 30.13 0 0 1 6.68-8.23z"></path>
                        <path d="M30.19 16.37c0-1.25-1.46-2.44-3.83-3.35a28.9 28.9 0 0 0-10-1.58A28.89 28.89 0 0 0 6.38 13c-2.36.91-3.83 2.1-3.83 3.35S4 18.81 6.38 19.72a28.86 28.86 0 0 0 10 1.58 28.87 28.87 0 0 0 10-1.58c2.36-.91 3.83-2.1 3.83-3.35zm-3.38-4.51c2.86 1.1 4.64 2.69 4.64 4.51s-1.77 3.41-4.64 4.51a30.12 30.12 0 0 1-10.44 1.67 30.11 30.11 0 0 1-10.44-1.66c-2.86-1.1-4.64-2.69-4.64-4.51S3.07 13 5.93 11.86a30.13 30.13 0 0 1 10.44-1.67 30.14 30.14 0 0 1 10.44 1.67z"></path>
                        <path d="M23.28 28.34c1.08-.62 1.38-2.49 1-5a28.84 28.84 0 0 0-3.62-9.44A28.88 28.88 0 0 0 14.28 6c-2-1.59-3.73-2.27-4.81-1.65-1.08.62-1.37 2.49-1 5a28.86 28.86 0 0 0 3.62 9.44 28.85 28.85 0 0 0 6.37 7.86c2 1.59 3.73 2.27 4.81 1.65zm2.22-5.18c.48 3 0 5.36-1.59 6.27-1.58.91-3.84.17-6.23-1.75A30.12 30.12 0 0 1 11 19.47a30.1 30.1 0 0 1-3.76-9.88c-.48-3 0-5.35 1.59-6.27 1.58-.91 3.84-.17 6.23 1.75a30.13 30.13 0 0 1 6.67 8.21 30.13 30.13 0 0 1 3.77 9.88z"></path>
                    </g>
                </g>
            </svg>
        </g>
    </g>
    <g id="body_box" class="need_get_bbox" alt="方便计算所有元素居中">
        <g id="title_slogan_box" transform="translate(0,0)" class="need_get_bbox" alt="方便左右上下结构的时候居中文字和icon">

        </g>
    </g>
    <g id="title" type="text" text="核酸检测管理系统" param="{&quot;f_s_w100&quot;:300,&quot;f_s&quot;:46}"
       transform="translate(17.955001831054688,171.81753540039062)">
        <g>
            <svg xmlns="http://www.w3.org/2000/svg" xmlns:xlink="http://www.w3.org/1999/xlink" version="1.1"
                 overflow="hidden" preserveAspectRatio="xMinYMin meet" width="364.09000000000003"
                 viewBox="0 0 791.5 95.30000305175781" preserveaspectratio="xMinYMin meet">
                <path d="M93.80-57L83.40-61.40L76.30-53.50L61.10-52.50L66.10-63.50L96.30-65.10L96-76.30L77.80-76.20L78.20-84.40L62.50-83.70L64-76.10L43.70-75.90L44.30-62.40L52.80-62.80L44.90-41.50L65.60-42.40L42.60-20.70L54.30-14.20ZM72-24.90L44.80 1.20L56.20 8.10L97-35.20L86.20-40.50ZM76.50-11.40L84.50 7.90L97.70 5.20L86.70-14.50ZM40.50-70.10L30.40-70L30.40-83.60L16.50-83L17-69.80L5-69.60L5.60-55.80L17.30-56.60L19.10 8L30.20 7.60L30.30-57.50L40.80-58.20ZM14.10 5L14.80-52.80L9-53L5.50 4.70ZM34.90 5.20L43.20 4.60L38.50-54L32.90-53.30Z"
                      fill="rgba(32, 31, 31, 0.66)" transform="translate(-5,86.30000305175781)"></path>
                <path d="M192.80-36.10L164.70-35.10L165.90-37.80L152.90-38.50L148-24L181.90-25L170.10-16.10L155.70-22.60L148.60-14.80L160-8.40L146.90 1.60L158 9L171.10-2.20L190.20 8.50L198.70-3L181.10-11L194.30-22.40ZM170.90-52.40L162.10-57.80L144.40-46.60L153.30-39.20ZM191.10-39.50L199.90-48.50L181.40-58.60L173.30-52ZM174.10-79.20L178.50-71.90L163.60-70.70L169.70-81.90L156.90-85L147.40-59L195.40-61.70L186.60-82.60ZM134.90-69.20L145.20-69.70L144.70-80.90L105.70-80.50L106.20-67.70L116.60-68.20L116.80-61.80L107.20-61.60L106.80 6L145.40 4.60L143.80-62.40L134.50-62.10ZM136.30-38.20L133-37.70L133.70-49.80L135.90-49.80ZM127.50-68.80L127.30-62L124.20-61.90L124.20-68.70ZM114.60-11.90L134.30-12L133.80-23.10L114.60-21.80L114.60-49.50L117.20-49.50L117.80-26.60L124.10-26.90L124.10-49.70L127.10-49.70L126.80-27L136.70-27.30L137.50-8.10L114.60-7.50Z"
                      fill="rgba(32, 31, 31, 0.66)" transform="translate(-5,86.30000305175781)"></path>
                <path d="M270.10-71.70L285.50-47.40L299.90-48.70L275.90-83.60L264.60-82.90L240.60-47.70L256.70-47.40ZM246.70 6.60L297.40 4.10L296.90-6.80L246-5.60ZM248.10-44.60L249.20-32.40L293.10-35.20L292.60-45.80ZM262.70-9.90L258.40-29.90L247.30-28.20L253.40-8.50ZM277.20-10.70L275-31.30L263.80-29.80L268.40-9.40ZM284.30-31.30L281.20-10.60L290.40-9.40L295.80-29.80ZM240.40-70.10L230.30-70L230.30-83.60L216.50-83.10L216.90-69.80L204.90-69.60L205.60-55.90L217.20-56.60L219 8L230.10 7.60L230.20-57.50L240.70-58.20ZM214.10 4.90L214.70-52.80L208.90-53L205.50 4.70ZM234.90 5.10L243.20 4.60L238.40-54L232.90-53.30Z"
                      fill="rgba(32, 31, 31, 0.66)" transform="translate(-5,86.30000305175781)"></path>
                <path d="M311.70-57.10L322-59.60L315.70-81.40L303.20-78.20ZM315.20-55.60L302.70-52.60L311.20-31.40L321.50-33.90ZM316.30 6.90L321.70-27.90L312-28.60L303.10 4.90ZM335.80-21.60L334.80-66.70L352.30-67.60L352.40-19.40L362.50-20.10L363.20-80.60L324.40-79.80L325.10-21ZM338.10-62.90L338.90-23.40L324.90 4.40L337.30 7.50L348.10-22.50L348.70-62.60ZM351.10 7.50L362.60 4.80L355.30-16.10L346.50-14.40ZM379.40-82.70L381.70-5.10L370.30-5.90L369.10 6.40L393.40 6.60L392.30-83.20ZM367.10-73.20L366.70-11.20L377-11.50L375.10-73.80Z"
                      fill="rgba(32, 31, 31, 0.66)" transform="translate(-5,86.30000305175781)"></path>
                <path d="M443.60-63.20L444.40-58.90L405.80-58.50L406-41.80L414.70-42L415.30 6.50L488.50 5.40L489.20-17.70L428.20-16.70L427.90-21.70L486-22.50L486.30-43.70L494.70-43.60L495-59.40L458.40-59L458.90-63.50ZM476.40-3.50L428.20-2.40L427.80-7.20L476.40-8.30ZM427.90-35.50L472.70-36.50L472.70-31.20L428.20-30.60ZM419.10-44.60L418.80-50.40L482.10-51.10L481.90-45.80ZM485.70-64.20L481.80-69.60L496.20-70.20L494.80-80.60L468.20-78.30L470.10-84.60L456.10-86.30L452.50-68.20L468.20-69L469.50-62.60ZM440.10-63.20L436.10-69.20L451.20-69.80L449.80-80.20L419.50-77.90L421.30-84.20L407.50-85.90L403.80-67.80L422.80-68.70L424.30-61.60Z"
                      fill="rgba(32, 31, 31, 0.66)" transform="translate(-5,86.30000305175781)"></path>
                <path d="M573-6L572.90-14L594.70-15.10L594.30-26.20L572.70-25.90L572.60-33.30L592.40-33.40L593.30-82.20L538.40-80.80L539.30-33L560.40-33.20L560.40-25.80L539-25.50L539.60-12.30L560.30-13.30L560.30-5.90L537.40-5.60L538 6.90L596.40 4.40L596.10-6.20ZM572.50-45.20L572.40-52.10L579.20-52.60L578.80-62.30L572.30-62.20L572.10-70L580.80-70.10L581.10-45.50ZM550.10-69.60L560.70-69.80L560.60-62L552.50-61.70L553-50.70L560.60-51.20L560.50-44.70L550.90-44.30ZM526.30-32.50L533.90-33.10L533.60-44.90L526.30-44.80L526.30-66.40L534.10-67L533.80-78.90L503.90-78.20L504.20-64.50L512.60-65.10L512.90-44.70L504.60-44.60L504.90-30.80L513.10-31.50L513.60-8.90L504.20-8.50L505.30 5.60L535.10 2.30L534.50-9.90L526.30-9.50Z"
                      fill="rgba(32, 31, 31, 0.66)" transform="translate(-5,86.30000305175781)"></path>
                <path d="M682.50-50.20L667.70-45.40L673.70-38.20L639.50-35.10L685.40-60.90L667.10-65.70L654.70-58.50L639.90-57.50L655.60-69.40L693.30-71.50L692.10-83.90L606-78.30L606.90-66.50L632.20-68L626.20-62.90L612-51.50L613.20-46L636.70-48L608.20-31.40L609.70-22.50L645-24.30L645.90-5.90L633.80-6.30L632.70 7.20L660.90 6.30L660.40-25.10L695.50-26.90ZM666.30-13.80L683.80 5.20L697.50-3.60L676.70-20.30ZM602.70-3.10L616.50 5.80L634-13.30L623.60-19.80Z"
                      fill="rgba(32, 31, 31, 0.66)" transform="translate(-5,86.30000305175781)"></path>
                <path d="M753 8.50L759.90-33.20L747.90-33.90L737.90 7.10ZM783.90-33.80L770.20-33.80L770.30 6.80L796.40 6.30L795.40-6.90L782.50-5.90ZM748.30-63.90L738.40-36.70L794.80-38.40L786.70-61.60L773.40-58.30L777.60-50L756.10-49.50L763-64.60L796.50-65.90L796.20-77.20L776.20-77.20L776.40-84.80L759.70-84.30L760.90-77.10L739.10-77.10L739.40-63.50ZM739.40-61.40L728.20-64.90L721.30-47.80L717.30-47.30L730-81.30L717.10-83.90L703-35.30L716.30-35.70L706.40-13L737.50-15.90L736.30-28.90L723.10-26.80ZM707.60 6.10L736.50 3.40L735.60-8.30L706.80-7.10Z"
                      fill="rgba(32, 31, 31, 0.66)" transform="translate(-5,86.30000305175781)"></path>
                <rect fill="rgba(0,0,0,0)" width="100%" class="rect_bg" height="100%"></rect>
            </svg>
        </g>
    </g>
    <g id="slogan" type="text" text="NADMS" param="{&quot;f_s_w100&quot;:300,&quot;f_s&quot;:20}"
       transform="translate(155.74300003051758,222.65553665161133)">
        <g>
            <svg xmlns="http://www.w3.org/2000/svg" xmlns:xlink="http://www.w3.org/1999/xlink" version="1.1"
                 overflow="hidden" preserveAspectRatio="xMinYMin meet" width="88.51400146484376"
                 viewBox="0 0 442.57000732421875 67.63500213623047" preserveaspectratio="xMinYMin meet">
                <path d="M51.17-53.52L51.17-53.52L51.17-2.73Q51.17 1.56 46.88 1.56L46.88 1.56Q41.80 1.56 42.58-3.91L42.58-3.91Q42.97-5.47 42.97-6.25L42.97-6.25L42.97-17.58L13.28-34.77Q13.28-29.30 13.67-17.97L13.67-17.97Q13.67-7.03 13.67-1.95L13.67-1.95Q13.28 1.17 9.38 1.56L9.38 1.56Q4.30 1.56 5.08-4.30L5.08-4.30Q5.08-5.86 5.08-6.64L5.08-6.64L5.08-50L5.08-52.73Q5.08-53.91 4.30-56.25L4.30-56.25Q3.52-58.20 3.52-59.38L3.52-59.38Q3.52-60.55 3.52-61.33L3.52-61.33Q5.08-62.89 7.03-62.89L7.03-62.89Q8.59-62.89 11.72-60.16L11.72-60.16Q12.50-59.77 12.89-59.38L12.89-59.38L42.58-42.19Q42.58-42.97 42.58-44.92L42.58-44.92Q40.63-63.67 48.05-63.67L48.05-63.67Q48.83-63.67 49.61-63.28L49.61-63.28Q50.39-63.28 50.78-63.28L50.78-63.28Q52.73-62.11 52.73-60.16L52.73-60.16Q52.73-59.38 51.95-57.03L51.95-57.03Q51.17-54.69 51.17-53.52Z"
                      fill="#666" transform="translate(-3.5199999809265137,65.2300033569336)"></path>
                <path d="M159.38 2.34L159.38 2.34L156.64 1.56Q154.69-0.39 153.91-5.86L153.91-5.86Q153.13-14.45 144.14-14.06L144.14-14.06L125-14.06Q114.84-14.06 112.50-3.52L112.50-3.52Q111.33 2.34 107.42 2.34L107.42 2.34Q106.25 2.34 104.30 1.17L104.30 1.17Q104.30 0.78 103.52 0L103.52 0Q103.52-4.30 111.33-30.86L111.33-30.86Q114.45-41.80 115.23-44.53L115.23-44.53Q118.75-63.67 133.98-62.50L133.98-62.50Q147.27-62.89 151.17-46.48L151.17-46.48Q151.56-44.92 153.91-36.33L153.91-36.33Q163.67-3.52 163.67-0.78L163.67-0.78Q163.67-0.39 163.28 0L163.28 0Q162.89 0.78 162.89 0.78L162.89 0.78Q161.33 2.73 159.38 2.34ZM119.92-27.73L147.66-27.73L147.66-29.69Q143.75-44.92 133.98-44.14L133.98-44.14Q123.44-44.14 119.92-27.73L119.92-27.73Z"
                      fill="#666" transform="translate(-3.5199999809265137,65.2300033569336)"></path>
                <path d="M214.06-8.59L214.06-8.59L214.06-51.56Q214.06-52.73 213.67-53.52L213.67-53.52L212.89-54.69L211.33-54.69Q210.55-54.69 208.98-54.30L208.98-54.30Q207.81-53.91 207.42-53.91L207.42-53.91Q202.73-53.91 202.73-57.03L202.73-57.03Q202.73-63.67 218.36-63.67L218.36-63.67Q251.95-62.11 253.52-31.25L253.52-31.25Q249.22-2.34 216.41 1.95L216.41 1.95Q210.16 1.95 210.16-0.39L210.16-0.39Q210.16-0.78 211.33-2.34L211.33-2.34Q214.06-5.47 214.06-8.59ZM222.66-49.22L222.66-49.22L222.66-25.39Q222.27-20.70 225.78-20.70L225.78-20.70Q240.63-22.27 242.19-39.45L242.19-39.45Q240.63-53.91 227.34-55.47L227.34-55.47Q222.27-55.86 222.66-49.22Z"
                      fill="#666" transform="translate(-3.5199999809265137,65.2300033569336)"></path>
                <path d="M357.42-33.20L357.42-33.20L355.47-34.77L353.91-33.98Q352.34-31.64 350-27.73L350-27.73Q344.53-20.70 343.36-13.67L343.36-13.67L343.36-12.50Q342.19-11.33 341.02-11.33L341.02-11.33L339.84-11.72Q338.67-13.28 333.98-19.53L333.98-19.53Q325-32.42 322.66-32.81L322.66-32.81L321.88-32.81Q319.53-30.86 316.80-17.58L316.80-17.58Q312.89 1.56 307.81 1.56L307.81 1.56Q307.42 1.56 306.64 1.17L306.64 1.17Q305.86 1.17 305.86 1.17L305.86 1.17Q303.91 0 303.91-1.17L303.91-1.17Q303.91-10.16 311.72-28.52L311.72-28.52Q319.53-46.88 319.53-55.86L319.53-55.86Q319.53-56.25 319.14-57.81L319.14-57.81Q318.36-59.38 318.36-60.16L318.36-60.16Q318.36-60.16 318.75-60.94L318.75-60.94Q319.14-62.11 319.14-62.50L319.14-62.50L321.48-63.28Q326.56-62.11 337.50-45.70L337.50-45.70Q339.84-41.80 340.63-41.02L340.63-41.02Q352.34-62.89 356.64-63.28L356.64-63.28Q360.16-62.89 360.55-59.77L360.55-59.77Q360.55-58.98 360.16-57.42L360.16-57.42Q359.38-55.47 359.38-54.69L359.38-54.69Q359.38-46.09 366.80-28.52L366.80-28.52Q374.22-10.55 374.22-1.56L374.22-1.56Q374.22 0 373.05 0.78L373.05 0.78Q372.27 1.17 370.70 1.56L370.70 1.56Q364.84 1.56 364.84-4.69L364.84-4.69Q364.84-5.08 364.84-5.47L364.84-5.47Q364.84-10.55 360.55-22.27L360.55-22.27Q358.20-30.08 357.42-33.20Z"
                      fill="#666" transform="translate(-3.5199999809265137,65.2300033569336)"></path>
                <path d="M442.97-58.59L442.97-58.59Q442.19-57.81 441.02-57.42L441.02-57.42Q439.06-56.64 438.28-55.47L438.28-55.47Q437.89-54.69 437.50-53.13L437.50-53.13Q437.11-51.56 436.33-50.78L436.33-50.78L435.94-50.78Q435.55-50.78 434.77-51.56L434.77-51.56Q430.86-56.64 425.78-56.64L425.78-56.64Q415.63-55.86 415.23-49.22L415.23-49.22Q415.23-43.36 426.95-40.23L426.95-40.23Q446.09-35.55 446.09-19.92L446.09-19.92Q444.92 0 423.83 1.17L423.83 1.17Q404.30-0.39 403.13-17.19L403.13-17.19Q403.52-28.13 409.38-31.64L409.38-31.64Q410.94-30.86 412.50-28.52L412.50-28.52Q413.28-27.34 413.67-26.56L413.67-26.56Q419.14-26.56 421.09-23.44L421.09-23.44Q419.92-23.44 418.75-21.88L418.75-21.88Q418.75-21.88 418.75-20.70L418.75-20.70Q418.36-19.92 418.36-19.53L418.36-19.53Q418.36-13.67 424.61-13.28L424.61-13.28Q436.33-14.45 436.72-23.83L436.72-23.83Q436.72-30.47 424.22-33.59L424.22-33.59Q407.81-37.89 407.81-49.22L407.81-49.22Q408.98-63.28 425.78-65.23L425.78-65.23Q439.06-64.06 442.97-58.59Z"
                      fill="#666" transform="translate(-3.5199999809265137,65.2300033569336)"></path>
                <rect fill="rgba(0,0,0,0)" width="100%" class="rect_bg" height="100%"></rect>
            </svg>
        </g>
    </g>
</svg>